<?xml version="1.0" encoding="ISO-8859-1" standalone="no"?><svg xmlns="http://www.w3.org/2000/svg" xmlns:xlink="http://www.w3.org/1999/xlink" version="1.1" x="0" y="0" height="600" width="1500"  >
<circle cx="100" cy="305.84" r="1.92" style="stroke-width:0.96; stroke:#212121; fill:#212121; "  />
<line x1="100" y1="305.84" x2="38" y2="305.84" style="stroke-width:0.96; stroke:#212121; fill:#212121; "  />
<svg xmlns="http://www.w3.org/2000/svg" xmlns:xlink="http://www.w3.org/1999/xlink" version="1.1"  >
<rect x="85.95709421253949" y="302" height="7.68" width="24" rx="2" ry="2" style="fill:#b9282e; stroke-width:0.5; stroke:#424242; " transform="skewX(-10)"  />
<text x="35.059" y="307.68" style="font-size:0.5em; font-family:Monospace; fill:#ffffff; font-style:italic; "  >
VIHigh</text>
</svg>
<circle cx="100" cy="315.44" r="1.92" style="stroke-width:0.96; stroke:#212121; fill:#212121; "  />
<line x1="100" y1="315.44" x2="38" y2="315.44" style="stroke-width:0.96; stroke:#212121; fill:#212121; "  />
<svg xmlns="http://www.w3.org/2000/svg" xmlns:xlink="http://www.w3.org/1999/xlink" version="1.1"  >
<rect x="87.64983322734076" y="311.6" height="7.68" width="24" rx="2" ry="2" style="fill:#b9282e; stroke-width:0.5; stroke:#424242; " transform="skewX(-10)"  />
<text x="35.059" y="317.28000000000003" style="font-size:0.5em; font-family:Monospace; fill:#ffffff; font-style:italic; "  >
VIHigh</text>
</svg>
<circle cx="100" cy="325.04" r="1.92" style="stroke-width:0.96; stroke:#212121; fill:#212121; "  />
<line x1="100" y1="325.04" x2="47" y2="325.04" style="stroke-width:0.96; stroke:#212121; fill:#212121; "  />
<svg xmlns="http://www.w3.org/2000/svg" xmlns:xlink="http://www.w3.org/1999/xlink" version="1.1"  >
<rect x="98.34257224214203" y="321.20000000000005" height="7.68" width="15" rx="2" ry="2" style="fill:#1f1f1f; stroke-width:0.5; stroke:#424242; " transform="skewX(-10)"  />
<text x="44.059" y="326.88000000000005" style="font-size:0.5em; font-family:Monospace; fill:#ffffff; font-style:italic; "  >
GND</text>
</svg>
<circle cx="100" cy="334.64000000000004" r="1.92" style="stroke-width:0.96; stroke:#212121; fill:#212121; "  />
<line x1="100" y1="334.64000000000004" x2="47" y2="334.64000000000004" style="stroke-width:0.96; stroke:#212121; fill:#212121; "  />
<svg xmlns="http://www.w3.org/2000/svg" xmlns:xlink="http://www.w3.org/1999/xlink" version="1.1"  >
<rect x="100.03531125694329" y="330.80000000000007" height="7.68" width="15" rx="2" ry="2" style="fill:#1f1f1f; stroke-width:0.5; stroke:#424242; " transform="skewX(-10)"  />
<text x="44.059" y="336.4800000000001" style="font-size:0.5em; font-family:Monospace; fill:#ffffff; font-style:italic; "  >
GND</text>
</svg>
<circle cx="100" cy="344.24000000000007" r="1.92" style="stroke-width:0.96; stroke:#212121; fill:#212121; "  />
<line x1="100" y1="344.24000000000007" x2="35" y2="344.24000000000007" style="stroke-width:0.96; stroke:#212121; fill:#212121; "  />
<svg xmlns="http://www.w3.org/2000/svg" xmlns:xlink="http://www.w3.org/1999/xlink" version="1.1"  >
<rect x="89.72805027174456" y="340.4000000000001" height="7.68" width="27" rx="2" ry="2" style="fill:#30c9e0; stroke-width:0.5; stroke:#424242; " transform="skewX(-10)"  />
<text x="32.059" y="346.0800000000001" style="font-size:0.5em; font-family:Monospace; fill:#ffffff; font-style:italic; "  >
Neutral</text>
</svg>
<circle cx="100" cy="353.8400000000001" r="1.92" style="stroke-width:0.96; stroke:#212121; fill:#212121; "  />
<line x1="100" y1="353.8400000000001" x2="35" y2="353.8400000000001" style="stroke-width:0.96; stroke:#212121; fill:#212121; "  />
<svg xmlns="http://www.w3.org/2000/svg" xmlns:xlink="http://www.w3.org/1999/xlink" version="1.1"  >
<rect x="91.42078928654584" y="350.0000000000001" height="7.68" width="27" rx="2" ry="2" style="fill:#30c9e0; stroke-width:0.5; stroke:#424242; " transform="skewX(-10)"  />
<text x="32.059" y="355.6800000000001" style="font-size:0.5em; font-family:Monospace; fill:#ffffff; font-style:italic; "  >
Neutral</text>
</svg>
<circle cx="100" cy="363.4400000000001" r="1.92" style="stroke-width:0.96; stroke:#212121; fill:#212121; "  />
<line x1="100" y1="363.4400000000001" x2="65" y2="363.4400000000001" style="stroke-width:0.96; stroke:#212121; fill:#212121; "  />
<svg xmlns="http://www.w3.org/2000/svg" xmlns:xlink="http://www.w3.org/1999/xlink" version="1.1"  />
<circle cx="100" cy="373.04000000000013" r="1.92" style="stroke-width:0.96; stroke:#212121; fill:#212121; "  />
<line x1="100" y1="373.04000000000013" x2="65" y2="373.04000000000013" style="stroke-width:0.96; stroke:#212121; fill:#212121; "  />
<svg xmlns="http://www.w3.org/2000/svg" xmlns:xlink="http://www.w3.org/1999/xlink" version="1.1"  />
<circle cx="100" cy="382.64000000000016" r="1.92" style="stroke-width:0.96; stroke:#212121; fill:#212121; "  />
<line x1="100" y1="382.64000000000016" x2="38" y2="382.64000000000016" style="stroke-width:0.96; stroke:#212121; fill:#212121; "  />
<svg xmlns="http://www.w3.org/2000/svg" xmlns:xlink="http://www.w3.org/1999/xlink" version="1.1"  >
<rect x="99.49900633094964" y="378.8000000000002" height="7.68" width="24" rx="2" ry="2" style="fill:#b9282e; stroke-width:0.5; stroke:#424242; " transform="skewX(-10)"  />
<text x="35.059" y="384.4800000000002" style="font-size:0.5em; font-family:Monospace; fill:#ffffff; font-style:italic; "  >
VI2Low</text>
</svg>
<circle cx="100" cy="392.2400000000002" r="1.92" style="stroke-width:0.96; stroke:#212121; fill:#212121; "  />
<line x1="100" y1="392.2400000000002" x2="38" y2="392.2400000000002" style="stroke-width:0.96; stroke:#212121; fill:#212121; "  />
<svg xmlns="http://www.w3.org/2000/svg" xmlns:xlink="http://www.w3.org/1999/xlink" version="1.1"  >
<rect x="101.1917453457509" y="388.4000000000002" height="7.68" width="24" rx="2" ry="2" style="fill:#b9282e; stroke-width:0.5; stroke:#424242; " transform="skewX(-10)"  />
<text x="35.059" y="394.0800000000002" style="font-size:0.5em; font-family:Monospace; fill:#ffffff; font-style:italic; "  >
VI2Low</text>
</svg>
<circle cx="100" cy="401.8400000000002" r="1.92" style="stroke-width:0.96; stroke:#212121; fill:#212121; "  />
<line x1="100" y1="401.8400000000002" x2="38" y2="401.8400000000002" style="stroke-width:0.96; stroke:#212121; fill:#212121; "  />
<svg xmlns="http://www.w3.org/2000/svg" xmlns:xlink="http://www.w3.org/1999/xlink" version="1.1"  >
<rect x="102.88448436055216" y="398.0000000000002" height="7.68" width="24" rx="2" ry="2" style="fill:#b9282e; stroke-width:0.5; stroke:#424242; " transform="skewX(-10)"  />
<text x="35.059" y="403.68000000000023" style="font-size:0.5em; font-family:Monospace; fill:#ffffff; font-style:italic; "  >
VI1Low</text>
</svg>
<circle cx="100" cy="411.4400000000002" r="1.92" style="stroke-width:0.96; stroke:#212121; fill:#212121; "  />
<line x1="100" y1="411.4400000000002" x2="38" y2="411.4400000000002" style="stroke-width:0.96; stroke:#212121; fill:#212121; "  />
<svg xmlns="http://www.w3.org/2000/svg" xmlns:xlink="http://www.w3.org/1999/xlink" version="1.1"  >
<rect x="104.57722337535344" y="407.60000000000025" height="7.68" width="24" rx="2" ry="2" style="fill:#b9282e; stroke-width:0.5; stroke:#424242; " transform="skewX(-10)"  />
<text x="35.059" y="413.28000000000026" style="font-size:0.5em; font-family:Monospace; fill:#ffffff; font-style:italic; "  >
VI1Low</text>
</svg>
<svg xmlns="http://www.w3.org/2000/svg" xmlns:xlink="http://www.w3.org/1999/xlink" version="1.1" x="legend"  >
<rect x="0" y="0" height="200" width="110" rx="5" ry="5" style="fill:#f1f1f1 ; stroke-width:0.5; stroke:#d1d1d1; "  />
<rect x="21.76326980708465" y="12" height="7.68" width="18" rx="2" ry="2" style="fill:#828584; stroke-width:0.5; stroke:#424242; " transform="skewX(-10)"  />
<text x="22.0" y="17.68" style="font-size:0.5em; font-family:Monospace; fill:#ffffff; font-style:italic; "  >
    </text>
<text x="40.0" y="17.68" style="font-size:0.5em; font-family:Monospace; fill:#000000; font-style:italic; "  >
Physical Pin</text>
<rect x="23.526539614169298" y="22" height="7.68" width="18" rx="2" ry="2" style="fill:#b9282e; stroke-width:0.5; stroke:#424242; " transform="skewX(-10)"  />
<text x="22.0" y="27.68" style="font-size:0.5em; font-family:Monospace; fill:#ffffff; font-style:italic; "  >
    </text>
<text x="40.0" y="27.68" style="font-size:0.5em; font-family:Monospace; fill:#000000; font-style:italic; "  >
Power</text>
<rect x="25.28980942125395" y="32" height="7.68" width="18" rx="2" ry="2" style="fill:#1f1f1f; stroke-width:0.5; stroke:#424242; " transform="skewX(-10)"  />
<text x="22.0" y="37.68" style="font-size:0.5em; font-family:Monospace; fill:#ffffff; font-style:italic; "  >
    </text>
<text x="40.0" y="37.68" style="font-size:0.5em; font-family:Monospace; fill:#000000; font-style:italic; "  >
GND</text>
<rect x="27.0530792283386" y="42" height="7.68" width="18" rx="2" ry="2" style="fill:#30c9e0; stroke-width:0.5; stroke:#424242; " transform="skewX(-10)"  />
<text x="22.0" y="47.68" style="font-size:0.5em; font-family:Monospace; fill:#ffffff; font-style:italic; "  >
    </text>
<text x="40.0" y="47.68" style="font-size:0.5em; font-family:Monospace; fill:#000000; font-style:italic; "  >
Neutral</text>
<rect x="28.81634903542325" y="52" height="7.68" width="18" rx="2" ry="2" style="fill:#FFAFAF; stroke-width:0.5; stroke:#424242; " transform="skewX(-10)"  />
<text x="22.0" y="57.68" style="font-size:0.5em; font-family:Monospace; fill:#000000; font-style:italic; "  >
    </text>
<text x="40.0" y="57.68" style="font-size:0.5em; font-family:Monospace; fill:#000000; font-style:italic; "  >
High Resolution Timer</text>
<rect x="30.579618842507898" y="62" height="7.68" width="18" rx="2" ry="2" style="fill:#A6CF98; stroke-width:0.5; stroke:#424242; " transform="skewX(-10)"  />
<text x="22.0" y="67.68" style="font-size:0.5em; font-family:Monospace; fill:#000000; font-style:italic; "  >
    </text>
<text x="40.0" y="67.68" style="font-size:0.5em; font-family:Monospace; fill:#000000; font-style:italic; "  >
Analog</text>
<rect x="32.34288864959255" y="72" height="7.68" width="18" rx="2" ry="2" style="fill:#5F6F94; stroke-width:0.5; stroke:#424242; " transform="skewX(-10)"  />
<text x="22.0" y="77.68" style="font-size:0.5em; font-family:Monospace; fill:#ffffff; font-style:italic; "  >
    </text>
<text x="40.0" y="77.68" style="font-size:0.5em; font-family:Monospace; fill:#000000; font-style:italic; "  >
CAN</text>
<rect x="34.1061584566772" y="82" height="7.68" width="18" rx="2" ry="2" style="fill:#AAC4FF; stroke-width:0.5; stroke:#424242; " transform="skewX(-10)"  />
<text x="22.0" y="87.68" style="font-size:0.5em; font-family:Monospace; fill:#000000; font-style:italic; "  >
    </text>
<text x="40.0" y="87.68" style="font-size:0.5em; font-family:Monospace; fill:#000000; font-style:italic; "  >
Serial</text>
<svg xmlns="http://www.w3.org/2000/svg" xmlns:xlink="http://www.w3.org/1999/xlink" version="1.1" x="18.840000000000003" y="100"  >
<path d="m 0 0 c 2 0 2.5 0 3 0 c 1 0 1 -3 3 -3 c 1.5 0 3 3 3 3 c 0 0 1.5 3 3 3 c 2 0 2 -3 3 -3 c 0 0 1 0 3 0 " style="stroke-width:0.96; stroke:#212121; fill:none; "  />
</svg>
<text x="40.84" y="101.68" style="font-size:0.5em; font-family:Monospace; fill:#000000; font-style:italic; "  >
HRTIM PWM</text>
</svg>
</svg>
